<svg xmlns="http://www.w3.org/2000/svg" viewBox="0 0 560 420"><polyline data-xmin-in-data="0" data-xmax-in-data="100" data-ymin-in-data="-2" data-ymax-in-data="2" data-xmin-in-pixels="73" data-xmax-in-pixels="507" data-ymin-in-pixels="374" data-ymax-in-pixels="32" points="73,374 507,374 507,32 73,32 73,374" stroke="black" fill="none" /><text x="73" y="389" text-anchor="middle" dominant-baseline="central" font-size="12" >0</text><text x="116" y="389" text-anchor="middle" dominant-baseline="central" font-size="12" >10</text><text x="160" y="389" text-anchor="middle" dominant-baseline="central" font-size="12" >20</text><text x="203" y="389" text-anchor="middle" dominant-baseline="central" font-size="12" >30</text><text x="246" y="389" text-anchor="middle" dominant-baseline="central" font-size="12" >40</text><text x="290" y="389" text-anchor="middle" dominant-baseline="central" font-size="12" >50</text><text x="333" y="389" text-anchor="middle" dominant-baseline="central" font-size="12" >60</text><text x="377" y="389" text-anchor="middle" dominant-baseline="central" font-size="12" >70</text><text x="420" y="389" text-anchor="middle" dominant-baseline="central" font-size="12" >80</text><text x="463" y="389" text-anchor="middle" dominant-baseline="central" font-size="12" >90</text><text x="507" y="389" text-anchor="middle" dominant-baseline="central" font-size="12" >100</text><text x="68" y="374" text-anchor="end" dominant-baseline="central" font-size="12" >-2</text><text x="68" y="288" text-anchor="end" dominant-baseline="central" font-size="12" >-1</text><text x="68" y="203" text-anchor="end" dominant-baseline="central" font-size="12" >0</text><text x="68" y="117" text-anchor="end" dominant-baseline="central" font-size="12" >1</text><text x="68" y="32" text-anchor="end" dominant-baseline="central" font-size="12" >2</text><polyline points="77,154 81,188 86,198 90,150 95,184 99,156 103,169 108,174 112,187 116,223 121,234 125,184 129,261 134,217 138,228 142,221 147,231 151,207 155,214 160,226 164,249 168,244 173,220 177,250 181,255 186,246 190,276 194,270 199,218 203,250 207,227 212,264 216,212 220,263 225,249 229,213 233,195 238,235 242,232 246,243 251,184 255,224 259,167 264,224 268,194 272,198 277,141 281,179 285,128 290,203 294,195 298,158 303,136 307,175 312,110 316,173 320,116 325,122 329,132 333,146 338,91 342,63 346,128 351,79 355,55 359,123 364,50 368,109 372,78 377,56 381,52 385,39 390,61 394,58 398,106 403,35 407,73 411,66 416,107 420,60 424,48 429,49 433,73 437,125 442,48 446,52 450,119 455,138 459,85 463,77 468,76 472,103 476,95 481,124 485,93 489,179 494,170 498,133 502,135 507,168" stroke="black" fill="none" /><polyline points="77,193 81,190 86,189 90,178 95,175 99,175 103,171 108,166 112,174 116,182 121,197 125,200 129,218 134,224 138,225 142,222 147,232 151,221 155,220 160,220 164,225 168,228 173,231 177,238 181,244 186,243 190,249 194,259 199,253 203,252 207,248 212,246 216,234 220,243 225,243 229,240 233,226 238,231 242,225 246,223 251,218 255,224 259,210 264,208 268,199 272,202 277,185 281,187 285,168 290,170 294,169 298,173 303,164 307,173 312,155 316,150 320,142 325,139 329,131 333,138 338,121 342,111 346,112 351,101 355,83 359,90 364,87 368,83 372,83 377,83 381,69 385,67 390,57 394,53 398,63 403,60 407,67 411,68 416,78 420,68 424,71 429,66 433,68 437,71 442,69 446,70 450,83 455,96 459,88 463,94 468,99 472,96 476,87 481,95 485,98 489,119 494,132 498,140 502,142 507,157" stroke="black" fill="none" stroke-dasharray="10 5" /></svg>