<svg xmlns="http://www.w3.org/2000/svg" viewBox="0 0 560 420"><polyline points="72.8,373.8 506.8,373.8 506.8,31.500000000000057 72.8,31.500000000000057 72.8,373.8" stroke="black" fill="none" /><text
             x="72.8"
             y="388.8"
             text-anchor="middle"
             dominant-baseline="central"
             font-size="12"
            >0</text><text
             x="121.02222222222221"
             y="388.8"
             text-anchor="middle"
             dominant-baseline="central"
             font-size="12"
            >10</text><text
             x="169.24444444444444"
             y="388.8"
             text-anchor="middle"
             dominant-baseline="central"
             font-size="12"
            >20</text><text
             x="217.46666666666664"
             y="388.8"
             text-anchor="middle"
             dominant-baseline="central"
             font-size="12"
            >30</text><text
             x="265.68888888888887"
             y="388.8"
             text-anchor="middle"
             dominant-baseline="central"
             font-size="12"
            >40</text><text
             x="313.9111111111111"
             y="388.8"
             text-anchor="middle"
             dominant-baseline="central"
             font-size="12"
            >50</text><text
             x="362.1333333333333"
             y="388.8"
             text-anchor="middle"
             dominant-baseline="central"
             font-size="12"
            >60</text><text
             x="410.35555555555555"
             y="388.8"
             text-anchor="middle"
             dominant-baseline="central"
             font-size="12"
            >70</text><text
             x="458.5777777777778"
             y="388.8"
             text-anchor="middle"
             dominant-baseline="central"
             font-size="12"
            >80</text><text
             x="506.8"
             y="388.8"
             text-anchor="middle"
             dominant-baseline="central"
             font-size="12"
            >90</text><text
             x="67.8"
             y="373.8"
             text-anchor="end"
             dominant-baseline="central"
             font-size="12"
            >-100</text><text
             x="67.8"
             y="316.75"
             text-anchor="end"
             dominant-baseline="central"
             font-size="12"
            >0</text><text
             x="67.8"
             y="259.70000000000005"
             text-anchor="end"
             dominant-baseline="central"
             font-size="12"
            >100</text><text
             x="67.8"
             y="202.65000000000003"
             text-anchor="end"
             dominant-baseline="central"
             font-size="12"
            >200</text><text
             x="67.8"
             y="145.60000000000005"
             text-anchor="end"
             dominant-baseline="central"
             font-size="12"
            >300</text><text
             x="67.8"
             y="88.55000000000001"
             text-anchor="end"
             dominant-baseline="central"
             font-size="12"
            >400</text><text
             x="67.8"
             y="31.500000000000057"
             text-anchor="end"
             dominant-baseline="central"
             font-size="12"
            >500</text><polyline points="77.14,56.954734884807124 81.04161616161616,77.390214599908 84.94323232323232,96.21824072650276 88.84484848484848,113.56525546586226 92.74646464646464,129.547755083414 96.6480808080808,144.27307225544934 100.54969696969697,157.84009687648648 104.45131313131313,170.3399401679695 108.35292929292929,181.85654654821866 112.25454545454545,192.467257372727 116.15616161616161,202.24333033067947 120.05777777777777,211.25041798577436 123.95939393939393,219.54900867505188 127.8610101010101,227.19483272664857 131.76262626262627,234.2392367244873 135.66424242424242,240.7295283333301 139.56585858585856,246.709293999913 143.46747474747474,252.21869166372903 147.36909090909091,257.29472044319914 151.2707070707071,261.9714691083449 155.1723232323232,266.2803450086161 159.07393939393938,270.25028499327004 162.97555555555556,273.9079497407652 166.8771717171717,277.27790280221814 170.77878787878785,280.38277556131214 174.68040404040403,283.2434192184696 178.5820202020202,285.8790448199591 182.48363636363635,288.3073522723208 186.38525252525253,290.5446492085257 190.28686868686867,292.60596050412926 194.18848484848485,294.50512917889205 198.09010101010102,296.254909361484 201.99171717171714,297.8670519415916 205.89333333333332,299.35238348463497 209.7949494949495,300.7208789390583 213.69656565656567,301.9817286244693 217.59818181818179,303.1433999504958 221.49979797979796,304.2136942808403 225.40141414141414,305.1997993244122 229.3030303030303,306.1083374053763 233.20464646464643,306.9454099362823 237.1062626262626,307.71663839294087 241.00787878787878,308.4272020662179 244.90949494949496,309.08187284427567 248.81111111111113,309.6850472588445 252.71272727272725,310.24077601073697 256.6143434343434,310.7527911728865 260.5159595959596,311.2245312535972 264.4175757575758,311.65916428831963 268.3191919191919,312.059609115029 272.22080808080807,312.4285549760831 276.12242424242424,312.7684795782002 280.02404040404036,313.08166573183877 283.92565656565654,313.3702166817261 287.8272727272727,313.6360702314873 291.7288888888889,313.8810117572325 295.63050505050506,314.10668619749583 299.5321212121212,314.3146091000467 303.4337373737374,314.50617679975926 307.33535353535353,314.6826757958917 311.2369696969697,314.8452913917489 315.1385858585858,314.9951156547502 319.04020202020206,315.133154750358 322.9418181818182,315.26033569912113 326.8434343434343,315.37751260220836 330.74505050505053,315.4854723772426 334.64666666666665,315.58494004295466 338.5482828282828,315.67658358814595 342.44989898989894,315.76101845765976 346.3515151515152,315.83881168548527 350.2531313131313,315.91048570275285 354.15474747474747,315.97652184619193 358.0563636363636,316.03736359061406 361.9579797979798,316.09341952712924 365.859595959596,316.1450661070957 369.7612121212121,316.19265017023076 373.6628282828283,316.2364912738606 377.56444444444446,316.27688383895185 381.46606060606064,316.31409912733557 385.36767676767676,316.3483870634039 389.26929292929293,316.37997791251155 393.1709090909091,316.4090838273543 397.0725252525253,316.4359002727101 400.97414141414146,316.4606073381091 404.87575757575763,316.48337094725014 408.77737373737375,316.50434397228395 412.6789898989899,316.52366726044727 416.5806060606061,316.5414705799417 420.4822222222223,316.55787349141013 424.38383838383845,316.5729861508625 428.28545454545457,316.5869100494437 432.18707070707075,316.5997386950114 436.0886868686869,316.61155824010086 439.99030303030304,316.6224480604942 443.8919191919192,316.63248128827934 447.7935353535354,316.64172530297856 451.6951515151515,316.6502421840451 455.5967676767677,316.65808912776623 459.4983838383839,316.6653188313726 463.40000000000003,316.6719798469341" stroke="black" fill="none" /><circle cx="77.14" cy="57.058400000000006" r="3.4" stroke="black" fill="none"/><circle cx="80.03333333333333" cy="72.23370000000006" r="3.4" stroke="black" fill="none"/><circle cx="139.3466666666667" cy="245.95095000000003" r="3.4" stroke="black" fill="none"/><circle cx="168.28" cy="278.35535000000004" r="3.4" stroke="black" fill="none"/><circle cx="189.01555555555558" cy="292.10440000000006" r="3.4" stroke="black" fill="none"/><circle cx="208.78666666666663" cy="300.71895" r="3.4" stroke="black" fill="none"/><circle cx="242.54222222222222" cy="309.27645" r="3.4" stroke="black" fill="none"/><circle cx="363.58" cy="316.9782" r="3.4" stroke="black" fill="none"/><circle cx="432.53777777777776" cy="317.49165000000005" r="3.4" stroke="black" fill="none"/><circle cx="463.40000000000003" cy="317.60575" r="3.4" stroke="black" fill="none"/></svg>