<svg xmlns="http://www.w3.org/2000/svg" viewBox="0 0 560 420"><polyline data-xmin-in-data="0" data-xmax-in-data="90" data-ymin-in-data="-100" data-ymax-in-data="500" data-xmin-in-pixels="73" data-xmax-in-pixels="507" data-ymin-in-pixels="374" data-ymax-in-pixels="32" points="73,374 507,374 507,32 73,32 73,374" stroke="black" fill="none" /><text x="73" y="389" text-anchor="middle" dominant-baseline="central" font-size="12" >0</text><text x="121" y="389" text-anchor="middle" dominant-baseline="central" font-size="12" >10</text><text x="169" y="389" text-anchor="middle" dominant-baseline="central" font-size="12" >20</text><text x="217" y="389" text-anchor="middle" dominant-baseline="central" font-size="12" >30</text><text x="266" y="389" text-anchor="middle" dominant-baseline="central" font-size="12" >40</text><text x="314" y="389" text-anchor="middle" dominant-baseline="central" font-size="12" >50</text><text x="362" y="389" text-anchor="middle" dominant-baseline="central" font-size="12" >60</text><text x="410" y="389" text-anchor="middle" dominant-baseline="central" font-size="12" >70</text><text x="459" y="389" text-anchor="middle" dominant-baseline="central" font-size="12" >80</text><text x="507" y="389" text-anchor="middle" dominant-baseline="central" font-size="12" >90</text><text x="68" y="374" text-anchor="end" dominant-baseline="central" font-size="12" >-100</text><text x="68" y="317" text-anchor="end" dominant-baseline="central" font-size="12" >0</text><text x="68" y="260" text-anchor="end" dominant-baseline="central" font-size="12" >100</text><text x="68" y="203" text-anchor="end" dominant-baseline="central" font-size="12" >200</text><text x="68" y="146" text-anchor="end" dominant-baseline="central" font-size="12" >300</text><text x="68" y="89" text-anchor="end" dominant-baseline="central" font-size="12" >400</text><text x="68" y="32" text-anchor="end" dominant-baseline="central" font-size="12" >500</text><polyline points="77,57 81,77 85,96 89,114 93,130 97,144 101,158 104,170 108,182 112,192 116,202 120,211 124,220 128,227 132,234 136,241 140,247 143,252 147,257 151,262 155,266 159,270 163,274 167,277 171,280 175,283 179,286 182,288 186,291 190,293 194,295 198,296 202,298 206,299 210,301 214,302 218,303 221,304 225,305 229,306 233,307 237,308 241,308 245,309 249,310 253,310 257,311 261,311 264,312 268,312 272,312 276,313 280,313 284,313 288,314 292,314 296,314 300,314 303,315 307,315 311,315 315,315 319,315 323,315 327,315 331,315 335,316 339,316 342,316 346,316 350,316 354,316 358,316 362,316 366,316 370,316 374,316 378,316 381,316 385,316 389,316 393,316 397,316 401,316 405,316 409,317 413,317 417,317 420,317 424,317 428,317 432,317 436,317 440,317 444,317 448,317 452,317 456,317 459,317 463,317" stroke="black" fill="none" /><circle cx="77" cy="57" r="3.4" stroke="black" fill="none"/><circle cx="80" cy="72" r="3.4" stroke="black" fill="none"/><circle cx="139" cy="246" r="3.4" stroke="black" fill="none"/><circle cx="168" cy="278" r="3.4" stroke="black" fill="none"/><circle cx="189" cy="292" r="3.4" stroke="black" fill="none"/><circle cx="209" cy="301" r="3.4" stroke="black" fill="none"/><circle cx="243" cy="309" r="3.4" stroke="black" fill="none"/><circle cx="364" cy="317" r="3.4" stroke="black" fill="none"/><circle cx="433" cy="317" r="3.4" stroke="black" fill="none"/><circle cx="463" cy="318" r="3.4" stroke="black" fill="none"/></svg>