<svg xmlns="http://www.w3.org/2000/svg" viewBox="0 0 560 420"><polyline data-xmin-in-data="0" data-xmax-in-data="14" data-ymin-in-data="-1.5" data-ymax-in-data="1.5" data-xmin-in-pixels="73" data-xmax-in-pixels="507" data-ymin-in-pixels="374" data-ymax-in-pixels="32" points="73,374 507,374 507,32 73,32 73,374" stroke="black" fill="none" /><text x="73" y="389" text-anchor="middle" dominant-baseline="central" font-size="12" >0</text><text x="135" y="389" text-anchor="middle" dominant-baseline="central" font-size="12" >2</text><text x="197" y="389" text-anchor="middle" dominant-baseline="central" font-size="12" >4</text><text x="259" y="389" text-anchor="middle" dominant-baseline="central" font-size="12" >6</text><text x="321" y="389" text-anchor="middle" dominant-baseline="central" font-size="12" >8</text><text x="383" y="389" text-anchor="middle" dominant-baseline="central" font-size="12" >10</text><text x="445" y="389" text-anchor="middle" dominant-baseline="central" font-size="12" >12</text><text x="507" y="389" text-anchor="middle" dominant-baseline="central" font-size="12" >14</text><text x="68" y="374" text-anchor="end" dominant-baseline="central" font-size="12" >-1.5</text><text x="68" y="317" text-anchor="end" dominant-baseline="central" font-size="12" >-1.0</text><text x="68" y="260" text-anchor="end" dominant-baseline="central" font-size="12" >-0.5</text><text x="68" y="203" text-anchor="end" dominant-baseline="central" font-size="12" >0.0</text><text x="68" y="146" text-anchor="end" dominant-baseline="central" font-size="12" >0.5</text><text x="68" y="89" text-anchor="end" dominant-baseline="central" font-size="12" >1.0</text><text x="68" y="32" text-anchor="end" dominant-baseline="central" font-size="12" >1.5</text><polyline points="73,203 77,201 81,194 85,184 89,171 92,157 96,143 100,129 104,117 108,106 112,97 116,90 120,86 124,85 128,85 132,89 136,94 140,102 144,111 148,122 151,135 155,148 159,163 163,178 167,193 171,209 175,224 179,238 183,252 187,265 191,277 195,287 199,296 203,303 207,309 211,313 214,315 218,316 222,314 226,311 230,307 234,300 238,293 242,283 246,273 250,262 254,250 258,237 262,223 266,210 270,196 273,182 277,169 281,156 285,143 289,132 293,122 297,113 301,105 305,99 309,94 313,91 317,90 321,90 325,92 329,96 333,102 336,109 340,118 344,129 348,140 352,153 356,167 360,182 364,197 368,212 372,227 376,242 380,257 384,271 388,283 392,294 395,304 399,311 403,317 407,320 411,321 415,319 419,315 423,308 427,299 431,289 435,276 439,262 443,248 447,234 451,221 454,211 458,204 462,203" stroke="black" fill="none" /><circle cx="73" cy="203" r="3.4" stroke="black" fill="none"/><circle cx="116" cy="90" r="3.4" stroke="black" fill="none"/><circle cx="159" cy="164" r="3.4" stroke="black" fill="none"/><circle cx="203" cy="301" r="3.4" stroke="black" fill="none"/><circle cx="246" cy="276" r="3.4" stroke="black" fill="none"/><circle cx="289" cy="129" r="3.4" stroke="black" fill="none"/><circle cx="333" cy="104" r="3.4" stroke="black" fill="none"/><circle cx="376" cy="242" r="3.4" stroke="black" fill="none"/><circle cx="419" cy="315" r="3.4" stroke="black" fill="none"/><circle cx="462" cy="203" r="3.4" stroke="black" fill="none"/></svg>